# Blender v2.91.2 OBJ File: 'ThingyOne.blend'
# www.blender.org
mtllib ThingyOne.mtl
o Cube.002
v 1.414214 0.000000 -1.000000
v 0.000000 -1.414214 -1.000000
v 1.414214 0.000000 1.000000
v 0.000000 -1.414214 1.000000
v 0.000000 1.414214 -1.000000
v -1.414214 0.000000 -1.000000
v 0.000000 1.414214 1.000000
v -1.414214 0.000000 1.000000
v 1.000000 1.000000 -1.000000
v 1.000000 -1.000000 -1.000000
v 1.000000 1.000000 1.000000
v 1.000000 -1.000000 1.000000
v -1.000000 1.000000 -1.000000
v -1.000000 -1.000000 -1.000000
v -1.000000 1.000000 1.000000
v -1.000000 -1.000000 1.000000
v -1.000000 1.000000 -1.000000
v -1.000000 -1.000000 -1.000000
v 1.000000 1.000000 -1.000000
v 1.000000 -1.000000 -1.000000
v -1.000000 1.000000 1.000000
v -1.000000 -1.000000 1.000000
v 1.000000 1.000000 1.000000
v 1.000000 -1.000000 1.000000
v -1.000000 0.000000 -1.414214
v -1.000000 -1.414214 0.000000
v 1.000000 0.000000 -1.414214
v 1.000000 -1.414214 -0.000000
v -1.000000 1.414214 0.000000
v -1.000000 -0.000000 1.414214
v 1.000000 1.414214 0.000000
v 1.000000 -0.000000 1.414214
v 1.414214 1.000000 0.000000
v -0.000000 1.000000 -1.414213
v 1.414214 -1.000000 -0.000000
v -0.000000 -1.000000 -1.414214
v 0.000000 1.000000 1.414214
v -1.414214 1.000000 0.000000
v 0.000000 -1.000000 1.414213
v -1.414214 -1.000000 -0.000000
v 0.292893 0.000000 -1.707107
v -0.707107 -1.414214 -0.707107
v 1.707107 0.000000 -0.292893
v 0.707107 -1.414214 0.707107
v -0.707107 1.414214 -0.707107
v -1.707107 0.000000 0.292893
v 0.707107 1.414214 0.707107
v -0.292893 0.000000 1.707107
v 0.000000 1.000000 -1.414214
v 0.000000 -1.000000 -1.414214
v 1.414214 1.000000 -0.000000
v 1.414214 -1.000000 -0.000000
v -1.414214 1.000000 0.000000
v -1.414214 -1.000000 0.000000
v -0.000000 1.000000 1.414214
v -0.000000 -1.000000 1.414214
v -1.414214 1.000000 0.000000
v -1.414214 -1.000000 0.000000
v 0.000000 1.000000 -1.414214
v 0.000000 -1.000000 -1.414214
v -0.000000 1.000000 1.414214
v -0.000000 -1.000000 1.414214
v 1.414214 1.000000 -0.000000
v 1.414214 -1.000000 -0.000000
v -1.707107 0.000000 -0.292893
v -0.707107 -1.414213 0.707107
v -0.292893 0.000000 -1.707107
v 0.707107 -1.414214 -0.707107
v -0.707107 1.414214 0.707107
v 0.292893 -0.000000 1.707107
v 0.707107 1.414213 -0.707107
v 1.707107 -0.000000 0.292893
v 1.000000 1.000000 -1.000000
v -1.000000 1.000000 -1.000000
v 1.000000 -1.000000 -1.000000
v -1.000000 -1.000000 -1.000000
v 1.000000 1.000000 1.000000
v -1.000000 1.000000 1.000000
v 1.000000 -1.000000 1.000000
v -1.000000 -1.000000 1.000000
v 1.414214 0.707107 -0.707107
v 0.000000 -0.292893 -1.707107
v 1.414213 -0.707107 0.707107
v 0.000000 -1.707107 -0.292893
v 0.000000 1.707107 0.292893
v -1.414213 0.707107 -0.707107
v -0.000000 0.292893 1.707107
v -1.414214 -0.707107 0.707107
v 1.000000 1.414214 0.000000
v 1.000000 0.000000 -1.414214
v 1.000000 -0.000000 1.414214
v 1.000000 -1.414214 0.000000
v -1.000000 1.414214 0.000000
v -1.000000 0.000000 -1.414214
v -1.000000 -0.000000 1.414214
v -1.000000 -1.414214 -0.000000
v -1.000000 1.414214 0.000000
v -1.000000 0.000000 -1.414214
v 1.000000 1.414214 0.000000
v 1.000000 0.000000 -1.414214
v -1.000000 0.000000 1.414214
v -1.000000 -1.414214 -0.000000
v 1.000000 0.000000 1.414214
v 1.000000 -1.414214 -0.000000
v -1.000000 1.000000 -1.000000
v -1.000000 -1.000000 -1.000000
v 1.000000 1.000000 -1.000000
v 1.000000 -1.000000 -1.000000
v -1.000000 1.000000 1.000000
v -1.000000 -1.000000 1.000000
v 1.000000 1.000000 1.000000
v 1.000000 -1.000000 1.000000
v 1.414213 0.707107 0.707107
v 0.000000 1.707107 -0.292893
v 1.414214 -0.707107 -0.707107
v 0.000000 0.292893 -1.707107
v -0.000000 -0.292893 1.707107
v -1.414214 0.707107 0.707107
v 0.000000 -1.707107 0.292893
v -1.414213 -0.707107 -0.707107
v 0.292893 1.207107 -1.207107
v -0.707107 -0.500000 -1.500000
v 1.707107 0.207107 -0.207107
v 0.707107 -1.500000 -0.500000
v -0.707107 1.500000 0.500000
v -1.707107 -0.207107 0.207107
v 0.707107 0.500000 1.500000
v -0.292893 -1.207107 1.207107
v 0.000000 1.707107 -0.292893
v 0.000000 0.292893 -1.707107
v 1.414214 0.707107 0.707107
v 1.414214 -0.707107 -0.707107
v -1.414214 0.707107 0.707107
v -1.414214 -0.707107 -0.707107
v -0.000000 -0.292893 1.707107
v -0.000000 -1.707107 0.292893
v -1.414214 0.707107 0.707107
v -1.414214 -0.707107 -0.707107
v 0.000000 1.707107 -0.292893
v 0.000000 0.292893 -1.707107
v -0.000000 -0.292893 1.707107
v -0.000000 -1.707107 0.292893
v 1.414214 0.707107 0.707107
v 1.414214 -0.707107 -0.707107
v -1.707107 0.207107 -0.207107
v -0.707107 -1.500000 -0.500000
v -0.292893 1.207107 -1.207107
v 0.707107 -0.500000 -1.500000
v -0.707107 0.500000 1.500000
v 0.292893 -1.207107 1.207107
v 0.707107 1.500000 0.500000
v 1.707107 -0.207107 0.207107
v 1.000000 1.414214 0.000000
v -1.000000 1.414214 0.000000
v 1.000000 -0.000000 -1.414214
v -1.000000 0.000000 -1.414214
v 1.000000 -0.000000 1.414214
v -1.000000 0.000000 1.414214
v 1.000000 -1.414214 -0.000000
v -1.000000 -1.414214 -0.000000
vt 0.625000 0.500000
vt 0.875000 0.500000
vt 0.875000 0.750000
vt 0.625000 0.750000
vt 0.375000 0.750000
vt 0.625000 1.000000
vt 0.375000 1.000000
vt 0.375000 0.000000
vt 0.625000 0.000000
vt 0.625000 0.250000
vt 0.375000 0.250000
vt 0.125000 0.500000
vt 0.375000 0.500000
vt 0.125000 0.750000
vt 0.625000 0.500000
vt 0.875000 0.500000
vt 0.875000 0.750000
vt 0.625000 0.750000
vt 0.375000 0.750000
vt 0.625000 1.000000
vt 0.375000 1.000000
vt 0.375000 0.000000
vt 0.625000 0.000000
vt 0.625000 0.250000
vt 0.375000 0.250000
vt 0.125000 0.500000
vt 0.375000 0.500000
vt 0.125000 0.750000
vt 0.625000 0.500000
vt 0.875000 0.500000
vt 0.875000 0.750000
vt 0.625000 0.750000
vt 0.375000 0.750000
vt 0.625000 1.000000
vt 0.375000 1.000000
vt 0.375000 0.000000
vt 0.625000 0.000000
vt 0.625000 0.250000
vt 0.375000 0.250000
vt 0.125000 0.500000
vt 0.375000 0.500000
vt 0.125000 0.750000
vt 0.625000 0.500000
vt 0.875000 0.500000
vt 0.875000 0.750000
vt 0.625000 0.750000
vt 0.375000 0.750000
vt 0.625000 1.000000
vt 0.375000 1.000000
vt 0.375000 0.000000
vt 0.625000 0.000000
vt 0.625000 0.250000
vt 0.375000 0.250000
vt 0.125000 0.500000
vt 0.375000 0.500000
vt 0.125000 0.750000
vt 0.625000 0.500000
vt 0.875000 0.500000
vt 0.875000 0.750000
vt 0.625000 0.750000
vt 0.375000 0.750000
vt 0.625000 1.000000
vt 0.375000 1.000000
vt 0.375000 0.000000
vt 0.625000 0.000000
vt 0.625000 0.250000
vt 0.375000 0.250000
vt 0.125000 0.500000
vt 0.375000 0.500000
vt 0.125000 0.750000
vt 0.625000 0.500000
vt 0.875000 0.500000
vt 0.875000 0.750000
vt 0.625000 0.750000
vt 0.375000 0.750000
vt 0.625000 1.000000
vt 0.375000 1.000000
vt 0.375000 0.000000
vt 0.625000 0.000000
vt 0.625000 0.250000
vt 0.375000 0.250000
vt 0.125000 0.500000
vt 0.375000 0.500000
vt 0.125000 0.750000
vt 0.625000 0.500000
vt 0.875000 0.500000
vt 0.875000 0.750000
vt 0.625000 0.750000
vt 0.375000 0.750000
vt 0.625000 1.000000
vt 0.375000 1.000000
vt 0.375000 0.000000
vt 0.625000 0.000000
vt 0.625000 0.250000
vt 0.375000 0.250000
vt 0.125000 0.500000
vt 0.375000 0.500000
vt 0.125000 0.750000
vt 0.625000 0.500000
vt 0.875000 0.500000
vt 0.875000 0.750000
vt 0.625000 0.750000
vt 0.375000 0.750000
vt 0.625000 1.000000
vt 0.375000 1.000000
vt 0.375000 0.000000
vt 0.625000 0.000000
vt 0.625000 0.250000
vt 0.375000 0.250000
vt 0.125000 0.500000
vt 0.375000 0.500000
vt 0.125000 0.750000
vt 0.625000 0.500000
vt 0.875000 0.500000
vt 0.875000 0.750000
vt 0.625000 0.750000
vt 0.375000 0.750000
vt 0.625000 1.000000
vt 0.375000 1.000000
vt 0.375000 0.000000
vt 0.625000 0.000000
vt 0.625000 0.250000
vt 0.375000 0.250000
vt 0.125000 0.500000
vt 0.375000 0.500000
vt 0.125000 0.750000
vt 0.625000 0.500000
vt 0.875000 0.500000
vt 0.875000 0.750000
vt 0.625000 0.750000
vt 0.375000 0.750000
vt 0.625000 1.000000
vt 0.375000 1.000000
vt 0.375000 0.000000
vt 0.625000 0.000000
vt 0.625000 0.250000
vt 0.375000 0.250000
vt 0.125000 0.500000
vt 0.375000 0.500000
vt 0.125000 0.750000
vt 0.625000 0.500000
vt 0.875000 0.500000
vt 0.875000 0.750000
vt 0.625000 0.750000
vt 0.375000 0.750000
vt 0.625000 1.000000
vt 0.375000 1.000000
vt 0.375000 0.000000
vt 0.625000 0.000000
vt 0.625000 0.250000
vt 0.375000 0.250000
vt 0.125000 0.500000
vt 0.375000 0.500000
vt 0.125000 0.750000
vt 0.625000 0.500000
vt 0.875000 0.500000
vt 0.875000 0.750000
vt 0.625000 0.750000
vt 0.375000 0.750000
vt 0.625000 1.000000
vt 0.375000 1.000000
vt 0.375000 0.000000
vt 0.625000 0.000000
vt 0.625000 0.250000
vt 0.375000 0.250000
vt 0.125000 0.500000
vt 0.375000 0.500000
vt 0.125000 0.750000
vt 0.625000 0.500000
vt 0.875000 0.500000
vt 0.875000 0.750000
vt 0.625000 0.750000
vt 0.375000 0.750000
vt 0.625000 1.000000
vt 0.375000 1.000000
vt 0.375000 0.000000
vt 0.625000 0.000000
vt 0.625000 0.250000
vt 0.375000 0.250000
vt 0.125000 0.500000
vt 0.375000 0.500000
vt 0.125000 0.750000
vt 0.625000 0.500000
vt 0.875000 0.500000
vt 0.875000 0.750000
vt 0.625000 0.750000
vt 0.375000 0.750000
vt 0.625000 1.000000
vt 0.375000 1.000000
vt 0.375000 0.000000
vt 0.625000 0.000000
vt 0.625000 0.250000
vt 0.375000 0.250000
vt 0.125000 0.500000
vt 0.375000 0.500000
vt 0.125000 0.750000
vt 0.625000 0.500000
vt 0.875000 0.500000
vt 0.875000 0.750000
vt 0.625000 0.750000
vt 0.375000 0.750000
vt 0.625000 1.000000
vt 0.375000 1.000000
vt 0.375000 0.000000
vt 0.625000 0.000000
vt 0.625000 0.250000
vt 0.375000 0.250000
vt 0.125000 0.500000
vt 0.375000 0.500000
vt 0.125000 0.750000
vt 0.625000 0.500000
vt 0.875000 0.500000
vt 0.875000 0.750000
vt 0.625000 0.750000
vt 0.375000 0.750000
vt 0.625000 1.000000
vt 0.375000 1.000000
vt 0.375000 0.000000
vt 0.625000 0.000000
vt 0.625000 0.250000
vt 0.375000 0.250000
vt 0.125000 0.500000
vt 0.375000 0.500000
vt 0.125000 0.750000
vt 0.625000 0.500000
vt 0.875000 0.500000
vt 0.875000 0.750000
vt 0.625000 0.750000
vt 0.375000 0.750000
vt 0.625000 1.000000
vt 0.375000 1.000000
vt 0.375000 0.000000
vt 0.625000 0.000000
vt 0.625000 0.250000
vt 0.375000 0.250000
vt 0.125000 0.500000
vt 0.375000 0.500000
vt 0.125000 0.750000
vt 0.625000 0.500000
vt 0.875000 0.500000
vt 0.875000 0.750000
vt 0.625000 0.750000
vt 0.375000 0.750000
vt 0.625000 1.000000
vt 0.375000 1.000000
vt 0.375000 0.000000
vt 0.625000 0.000000
vt 0.625000 0.250000
vt 0.375000 0.250000
vt 0.125000 0.500000
vt 0.375000 0.500000
vt 0.125000 0.750000
vt 0.625000 0.500000
vt 0.875000 0.500000
vt 0.875000 0.750000
vt 0.625000 0.750000
vt 0.375000 0.750000
vt 0.625000 1.000000
vt 0.375000 1.000000
vt 0.375000 0.000000
vt 0.625000 0.000000
vt 0.625000 0.250000
vt 0.375000 0.250000
vt 0.125000 0.500000
vt 0.375000 0.500000
vt 0.125000 0.750000
vt 0.625000 0.500000
vt 0.875000 0.500000
vt 0.875000 0.750000
vt 0.625000 0.750000
vt 0.375000 0.750000
vt 0.625000 1.000000
vt 0.375000 1.000000
vt 0.375000 0.000000
vt 0.625000 0.000000
vt 0.625000 0.250000
vt 0.375000 0.250000
vt 0.125000 0.500000
vt 0.375000 0.500000
vt 0.125000 0.750000
vn 0.7071 0.7071 0.0000
vn 0.0000 0.0000 1.0000
vn -0.7071 0.7071 0.0000
vn -0.7071 -0.7071 0.0000
vn 0.7071 -0.7071 0.0000
vn 0.0000 0.0000 -1.0000
vn 0.0000 1.0000 0.0000
vn -1.0000 0.0000 0.0000
vn 0.0000 -1.0000 0.0000
vn 1.0000 0.0000 0.0000
vn -0.0000 0.7071 -0.7071
vn 0.0000 0.7071 0.7071
vn 0.0000 -0.7071 0.7071
vn -0.0000 -0.7071 -0.7071
vn 0.7071 -0.0000 0.7071
vn -0.7071 -0.0000 0.7071
vn -0.7071 0.0000 -0.7071
vn 0.7071 0.0000 -0.7071
vn 0.5000 0.7071 -0.5000
vn -0.5000 0.7071 0.5000
vn -0.5000 -0.7071 0.5000
vn 0.5000 -0.7071 -0.5000
vn -0.5000 0.7071 -0.5000
vn 0.5000 0.7071 0.5000
vn 0.5000 -0.7071 0.5000
vn -0.5000 -0.7071 -0.5000
vn 0.7071 0.5000 0.5000
vn -0.7071 0.5000 0.5000
vn -0.7071 -0.5000 -0.5000
vn 0.7071 -0.5000 -0.5000
vn 0.7071 -0.5000 0.5000
vn -0.7071 -0.5000 0.5000
vn -0.7071 0.5000 -0.5000
vn 0.7071 0.5000 -0.5000
vn 0.5000 0.8536 0.1464
vn -0.5000 0.1464 0.8536
vn -0.5000 -0.8536 -0.1464
vn 0.5000 -0.1464 -0.8536
vn -0.5000 0.8536 0.1464
vn 0.5000 0.1464 0.8536
vn 0.5000 -0.8536 -0.1464
vn -0.5000 -0.1464 -0.8536
usemtl Material.002
s off
f 1/1/1 5/2/1 7/3/1 3/4/1
f 4/5/2 3/4/2 7/6/2 8/7/2
f 8/8/3 7/9/3 5/10/3 6/11/3
f 6/12/4 2/13/4 4/5/4 8/14/4
f 2/13/5 1/1/5 3/4/5 4/5/5
f 6/11/6 5/10/6 1/1/6 2/13/6
usemtl Material
f 9/15/7 13/16/7 15/17/7 11/18/7
f 12/19/2 11/18/2 15/20/2 16/21/2
f 16/22/8 15/23/8 13/24/8 14/25/8
f 14/26/9 10/27/9 12/19/9 16/28/9
f 10/27/10 9/15/10 11/18/10 12/19/10
f 14/25/6 13/24/6 9/15/6 10/27/6
usemtl Material.004
f 17/29/7 21/30/7 23/31/7 19/32/7
f 20/33/10 19/32/10 23/34/10 24/35/10
f 24/36/2 23/37/2 21/38/2 22/39/2
f 22/40/9 18/41/9 20/33/9 24/42/9
f 18/41/6 17/29/6 19/32/6 20/33/6
f 22/39/8 21/38/8 17/29/8 18/41/8
usemtl Material.003
f 25/43/11 29/44/11 31/45/11 27/46/11
f 28/47/10 27/46/10 31/48/10 32/49/10
f 32/50/12 31/51/12 29/52/12 30/53/12
f 30/54/13 26/55/13 28/47/13 32/56/13
f 26/55/14 25/43/14 27/46/14 28/47/14
f 30/53/8 29/52/8 25/43/8 26/55/8
usemtl Material.005
f 33/57/15 37/58/15 39/59/15 35/60/15
f 36/61/9 35/60/9 39/62/9 40/63/9
f 40/64/16 39/65/16 37/66/16 38/67/16
f 38/68/17 34/69/17 36/61/17 40/70/17
f 34/69/18 33/57/18 35/60/18 36/61/18
f 38/67/7 37/66/7 33/57/7 34/69/7
usemtl Material.010
f 41/71/19 45/72/19 47/73/19 43/74/19
f 44/75/15 43/74/15 47/76/15 48/77/15
f 48/78/20 47/79/20 45/80/20 46/81/20
f 46/82/21 42/83/21 44/75/21 48/84/21
f 42/83/22 41/71/22 43/74/22 44/75/22
f 46/81/17 45/80/17 41/71/17 42/83/17
usemtl Material.009
f 49/85/7 53/86/7 55/87/7 51/88/7
f 52/89/15 51/88/15 55/90/15 56/91/15
f 56/92/16 55/93/16 53/94/16 54/95/16
f 54/96/9 50/97/9 52/89/9 56/98/9
f 50/97/18 49/85/18 51/88/18 52/89/18
f 54/95/17 53/94/17 49/85/17 50/97/17
usemtl Material.008
f 57/99/7 61/100/7 63/101/7 59/102/7
f 60/103/18 59/102/18 63/104/18 64/105/18
f 64/106/15 63/107/15 61/108/15 62/109/15
f 62/110/9 58/111/9 60/103/9 64/112/9
f 58/111/17 57/99/17 59/102/17 60/103/17
f 62/109/16 61/108/16 57/99/16 58/111/16
usemtl Material.007
f 65/113/23 69/114/23 71/115/23 67/116/23
f 68/117/18 67/116/18 71/118/18 72/119/18
f 72/120/24 71/121/24 69/122/24 70/123/24
f 70/124/25 66/125/25 68/117/25 72/126/25
f 66/125/26 65/113/26 67/116/26 68/117/26
f 70/123/16 69/122/16 65/113/16 66/125/16
usemtl Material.006
f 73/127/10 77/128/10 79/129/10 75/130/10
f 76/131/9 75/130/9 79/132/9 80/133/9
f 80/134/2 79/135/2 77/136/2 78/137/2
f 78/138/8 74/139/8 76/131/8 80/140/8
f 74/139/6 73/127/6 75/130/6 76/131/6
f 78/137/7 77/136/7 73/127/7 74/139/7
usemtl Material.020
f 81/141/27 85/142/27 87/143/27 83/144/27
f 84/145/13 83/144/13 87/146/13 88/147/13
f 88/148/28 87/149/28 85/150/28 86/151/28
f 86/152/29 82/153/29 84/145/29 88/154/29
f 82/153/30 81/141/30 83/144/30 84/145/30
f 86/151/11 85/150/11 81/141/11 82/153/11
usemtl Material.019
f 89/155/12 93/156/12 95/157/12 91/158/12
f 92/159/13 91/158/13 95/160/13 96/161/13
f 96/162/8 95/163/8 93/164/8 94/165/8
f 94/166/14 90/167/14 92/159/14 96/168/14
f 90/167/10 89/155/10 91/158/10 92/159/10
f 94/165/11 93/164/11 89/155/11 90/167/11
usemtl Material.018
f 97/169/12 101/170/12 103/171/12 99/172/12
f 100/173/10 99/172/10 103/174/10 104/175/10
f 104/176/13 103/177/13 101/178/13 102/179/13
f 102/180/14 98/181/14 100/173/14 104/182/14
f 98/181/11 97/169/11 99/172/11 100/173/11
f 102/179/8 101/178/8 97/169/8 98/181/8
usemtl Material.017
f 105/183/7 109/184/7 111/185/7 107/186/7
f 108/187/10 107/186/10 111/188/10 112/189/10
f 112/190/2 111/191/2 109/192/2 110/193/2
f 110/194/9 106/195/9 108/187/9 112/196/9
f 106/195/6 105/183/6 107/186/6 108/187/6
f 110/193/8 109/192/8 105/183/8 106/195/8
usemtl Material.016
f 113/197/31 117/198/31 119/199/31 115/200/31
f 116/201/14 115/200/14 119/202/14 120/203/14
f 120/204/32 119/205/32 117/206/32 118/207/32
f 118/208/33 114/209/33 116/201/33 120/210/33
f 114/209/34 113/197/34 115/200/34 116/201/34
f 118/207/12 117/206/12 113/197/12 114/209/12
usemtl Material.015
f 121/211/35 125/212/35 127/213/35 123/214/35
f 124/215/31 123/214/31 127/216/31 128/217/31
f 128/218/36 127/219/36 125/220/36 126/221/36
f 126/222/37 122/223/37 124/215/37 128/224/37
f 122/223/38 121/211/38 123/214/38 124/215/38
f 126/221/33 125/220/33 121/211/33 122/223/33
usemtl Material.014
f 129/225/12 133/226/12 135/227/12 131/228/12
f 132/229/31 131/228/31 135/230/31 136/231/31
f 136/232/32 135/233/32 133/234/32 134/235/32
f 134/236/14 130/237/14 132/229/14 136/238/14
f 130/237/34 129/225/34 131/228/34 132/229/34
f 134/235/33 133/234/33 129/225/33 130/237/33
usemtl Material.013
f 137/239/12 141/240/12 143/241/12 139/242/12
f 140/243/34 139/242/34 143/244/34 144/245/34
f 144/246/31 143/247/31 141/248/31 142/249/31
f 142/250/14 138/251/14 140/243/14 144/252/14
f 138/251/33 137/239/33 139/242/33 140/243/33
f 142/249/32 141/248/32 137/239/32 138/251/32
usemtl Material.012
f 145/253/39 149/254/39 151/255/39 147/256/39
f 148/257/34 147/256/34 151/258/34 152/259/34
f 152/260/40 151/261/40 149/262/40 150/263/40
f 150/264/41 146/265/41 148/257/41 152/266/41
f 146/265/42 145/253/42 147/256/42 148/257/42
f 150/263/32 149/262/32 145/253/32 146/265/32
usemtl Material.011
f 153/267/10 157/268/10 159/269/10 155/270/10
f 156/271/14 155/270/14 159/272/14 160/273/14
f 160/274/13 159/275/13 157/276/13 158/277/13
f 158/278/8 154/279/8 156/271/8 160/280/8
f 154/279/11 153/267/11 155/270/11 156/271/11
f 158/277/12 157/276/12 153/267/12 154/279/12
